<svg width="149" height="60" viewBox="0 0 149 60" fill="none" xmlns="http://www.w3.org/2000/svg">
<path d="M11.6528 21V18.0605H12.8559V4.2793H11.6528V1.33984H18.9536C20.7583 1.33984 22.1892 1.88672 23.2465 2.98047C24.3038 4.0651 24.8325 5.44141 24.8325 7.10938C24.8325 8.01172 24.6821 8.76823 24.3813 9.37891C24.0896 9.98047 23.5974 10.541 22.9047 11.0605L24.4223 18.0605H25.229V21H20.9223L19.0629 12.373H17.5317V18.0605H18.7348V21H11.6528ZM17.5317 4.14258V9.54297C18.671 9.54297 19.3911 9.32422 19.6918 8.88672C20.0017 8.44922 20.1567 7.73828 20.1567 6.75391C20.1567 5.91536 20.0109 5.27279 19.7192 4.82617C19.4366 4.37044 18.7075 4.14258 17.5317 4.14258ZM33.4321 16.7207L36.8227 17.9785C36.4034 19.0723 35.7609 19.9154 34.895 20.5078C34.0291 21.1003 33.0265 21.3965 31.8872 21.3965C28.4418 21.3965 26.7192 18.9219 26.7192 13.9727C26.7192 11.6393 27.1795 9.87565 28.1001 8.68164C29.0297 7.48763 30.3331 6.89062 32.0102 6.89062C33.4685 6.89062 34.6671 7.45117 35.6059 8.57227C36.5447 9.69336 37.0141 11.3249 37.0141 13.4668V14.752H30.7661C30.7661 16.2741 30.8527 17.2721 31.0258 17.7461C31.2081 18.2201 31.5454 18.457 32.0376 18.457C32.4568 18.457 32.7713 18.3158 32.9809 18.0332C33.1905 17.7415 33.3409 17.304 33.4321 16.7207ZM30.7661 12.7148H32.9262V12.0449C32.9262 10.4772 32.5708 9.69336 31.8598 9.69336C31.4405 9.69336 31.1534 9.9349 30.9985 10.418C30.8435 10.8919 30.7661 11.6576 30.7661 12.7148ZM45.9145 15.5723L49.0727 16.748C48.5532 19.847 46.9034 21.3965 44.1235 21.3965C42.4464 21.3965 41.1248 20.7402 40.1586 19.4277C39.2016 18.1152 38.7231 16.306 38.7231 14C38.7231 11.9219 39.1378 10.2448 39.9672 8.96875C40.8058 7.69271 41.8995 7.05469 43.2485 7.05469C44.5428 7.05469 45.4132 7.62435 45.8598 8.76367H45.9145V7.27344H48.854V12.8242H45.9145C45.8507 11.8307 45.6912 11.097 45.436 10.623C45.1899 10.1491 44.8162 9.91211 44.3149 9.91211C43.7862 9.91211 43.4308 10.2266 43.2485 10.8555C43.0662 11.4753 42.9751 12.5234 42.9751 14C42.9751 15.6133 43.0616 16.7617 43.2348 17.4453C43.4171 18.1198 43.8364 18.457 44.4926 18.457C44.9484 18.457 45.281 18.2246 45.4907 17.7598C45.7003 17.2949 45.8416 16.5658 45.9145 15.5723ZM56.852 3.41797C56.852 4.07422 56.6196 4.63477 56.1547 5.09961C55.6899 5.56445 55.1293 5.79688 54.4731 5.79688C53.8168 5.79688 53.2563 5.56445 52.7915 5.09961C52.3266 4.63477 52.0942 4.07422 52.0942 3.41797C52.0942 2.76172 52.3266 2.20117 52.7915 1.73633C53.2563 1.27148 53.8168 1.03906 54.4731 1.03906C55.1202 1.03906 55.6762 1.27148 56.1411 1.73633C56.615 2.20117 56.852 2.76172 56.852 3.41797ZM50.9047 21V18.0605H52.395V10.2266H50.9047V7.27344H56.4829V18.0605H57.7954V21H50.9047ZM58.9985 27.2754V24.3359H60.3383V10.2266H58.9985V7.27344H64.4262V8.8457H64.4809C64.9002 7.65169 65.7342 7.05469 66.9829 7.05469C68.2589 7.05469 69.2387 7.65625 69.9223 8.85938C70.6059 10.0625 70.9477 11.8034 70.9477 14.082C70.9477 16.388 70.6059 18.1562 69.9223 19.3867C69.2387 20.6081 68.268 21.2188 67.0102 21.2188C66.0532 21.2188 65.1918 20.7904 64.4262 19.9336V24.3359H66.2993V27.2754H58.9985ZM64.4262 15.7363C64.4262 16.6478 64.5128 17.2995 64.686 17.6914C64.8592 18.0833 65.1554 18.2793 65.5747 18.2793C66.0942 18.2793 66.4086 17.9694 66.518 17.3496C66.6365 16.7207 66.6958 15.6224 66.6958 14.0547C66.6958 12.6602 66.6137 11.694 66.4497 11.1562C66.2856 10.6094 65.9848 10.3359 65.5473 10.3359C64.7999 10.3359 64.4262 11.1471 64.4262 12.7695V15.7363ZM79.5336 16.7207L82.9243 17.9785C82.505 19.0723 81.8624 19.9154 80.9965 20.5078C80.1307 21.1003 79.128 21.3965 77.9887 21.3965C74.5434 21.3965 72.8208 18.9219 72.8208 13.9727C72.8208 11.6393 73.281 9.87565 74.2016 8.68164C75.1313 7.48763 76.4347 6.89062 78.1118 6.89062C79.5701 6.89062 80.7687 7.45117 81.7075 8.57227C82.6463 9.69336 83.1157 11.3249 83.1157 13.4668V14.752H76.8676C76.8676 16.2741 76.9542 17.2721 77.1274 17.7461C77.3097 18.2201 77.6469 18.457 78.1391 18.457C78.5584 18.457 78.8728 18.3158 79.0825 18.0332C79.2921 17.7415 79.4425 17.304 79.5336 16.7207ZM76.8676 12.7148H79.0278V12.0449C79.0278 10.4772 78.6723 9.69336 77.9614 9.69336C77.5421 9.69336 77.255 9.9349 77.1001 10.418C76.9451 10.8919 76.8676 11.6576 76.8676 12.7148ZM93.8344 21V18.0605H95.3247V4.2793H93.8344V1.33984H100.78V4.2793H100V9.21484H102.967V4.2793H102.174V1.33984H109.147V4.2793H107.643V18.0605H109.147V21H102.174V18.0605H102.967V12.1543H100V18.0605H100.78V21H93.8344ZM122.422 7.27344V18.0605H123.926V21H118.334V19.9062C117.286 20.7812 116.256 21.2188 115.245 21.2188C114.187 21.2188 113.335 20.8268 112.688 20.043C112.041 19.2591 111.717 18.179 111.717 16.8027V10.2266H110.35V7.27344H115.805V16.1328C115.805 16.862 115.887 17.3724 116.051 17.6641C116.224 17.9466 116.525 18.0879 116.954 18.0879C117.191 18.0879 117.387 18.0514 117.541 17.9785C117.706 17.8965 117.97 17.7188 118.334 17.4453V10.2266H117.159V7.27344H122.422ZM124.952 21V18.0605H126.291V4.2793H124.952V1.33984H130.379V8.51758H130.434C131.036 7.54232 131.897 7.05469 133.018 7.05469C134.212 7.05469 135.165 7.62891 135.875 8.77734C136.595 9.92578 136.956 11.5938 136.956 13.7812C136.956 16.1693 136.609 18.0013 135.916 19.2773C135.233 20.5534 134.258 21.1914 132.991 21.1914C131.988 21.1914 131.118 20.763 130.379 19.9062V21H124.952ZM130.379 13.166V15.9551C130.379 16.7298 130.461 17.3086 130.625 17.6914C130.799 18.0651 131.099 18.252 131.528 18.252C132.029 18.252 132.348 17.9648 132.485 17.3906C132.631 16.8073 132.704 15.7227 132.704 14.1367C132.704 12.7057 132.622 11.7168 132.457 11.1699C132.303 10.6139 131.984 10.3359 131.5 10.3359C131.072 10.3359 130.776 10.5501 130.612 10.9785C130.457 11.4069 130.379 12.1361 130.379 13.166Z" fill="white"/>
<path d="M117.477 36L140.535 22ZM7.97729 36H117.477L115.875 44.1471C115.157 47.8036 112.173 51.1774 107.493 53.6264C102.813 56.0754 96.7623 57.4286 90.4928 57.4286H34.9617C28.6923 57.4286 22.6417 56.0754 17.9614 53.6264C13.2811 51.1774 10.2979 47.8036 9.57965 44.1471L7.97729 36Z" fill="#EC7100"/>
<path d="M117.477 36L140.535 22M117.477 36H7.97729L9.57965 44.1471C10.2979 47.8036 13.2811 51.1774 17.9614 53.6264C22.6417 56.0754 28.6923 57.4286 34.9617 57.4286H90.4928C96.7623 57.4286 102.813 56.0754 107.493 53.6264C112.173 51.1774 115.157 47.8036 115.875 44.1471L117.477 36Z" stroke="#EC7100" stroke-width="4" stroke-linecap="round" stroke-linejoin="round"/>
</svg>
