<svg width="176" height="60" viewBox="0 0 176 60" fill="none" xmlns="http://www.w3.org/2000/svg">
<path d="M137.5 31L160.558 17ZM28 31H137.5L135.898 39.1471C135.179 42.8036 132.196 46.1774 127.516 48.6264C122.836 51.0754 116.785 52.4286 110.516 52.4286H54.9844C48.715 52.4286 42.6644 51.0754 37.9841 48.6264C33.3038 46.1774 30.3207 42.8036 29.6024 39.1471L28 31Z" fill="#EC7100"/>
<path d="M137.5 31L160.558 17M137.5 31H28L29.6024 39.1471C30.3207 42.8036 33.3038 46.1774 37.9841 48.6264C42.6644 51.0754 48.715 52.4286 54.9844 52.4286H110.516C116.785 52.4286 122.836 51.0754 127.516 48.6264C132.196 46.1774 135.179 42.8036 135.898 39.1471L137.5 31Z" stroke="#EC7100" stroke-width="4" stroke-linecap="round" stroke-linejoin="round"/>
<path d="M38.5395 22.5V20.4004H39.3989V10.5566H38.5395V8.45703H43.7543C45.0434 8.45703 46.0655 8.84766 46.8208 9.62891C47.576 10.4036 47.9536 11.3867 47.9536 12.5781C47.9536 13.2227 47.8461 13.763 47.6313 14.1992C47.423 14.6289 47.0714 15.0293 46.5766 15.4004L47.6606 20.4004H48.2368V22.5H45.1606L43.8325 16.3379H42.7387V20.4004H43.5981V22.5H38.5395ZM42.7387 10.459V14.3164C43.5525 14.3164 44.0668 14.1602 44.2817 13.8477C44.503 13.5352 44.6137 13.0273 44.6137 12.3242C44.6137 11.7253 44.5096 11.2663 44.3012 10.9473C44.0994 10.6217 43.5786 10.459 42.7387 10.459ZM54.0961 19.4434L56.518 20.3418C56.2185 21.123 55.7596 21.7253 55.1411 22.1484C54.5226 22.5716 53.8064 22.7832 52.9926 22.7832C50.5317 22.7832 49.3012 21.0156 49.3012 17.4805C49.3012 15.8138 49.63 14.554 50.2876 13.7012C50.9516 12.8483 51.8826 12.4219 53.0805 12.4219C54.1222 12.4219 54.9783 12.8223 55.6489 13.623C56.3195 14.4238 56.6547 15.5892 56.6547 17.1191V18.0371H52.1918C52.1918 19.1243 52.2537 19.8372 52.3774 20.1758C52.5076 20.5143 52.7485 20.6836 53.1001 20.6836C53.3995 20.6836 53.6241 20.5827 53.7739 20.3809C53.9236 20.1725 54.031 19.86 54.0961 19.4434ZM52.1918 16.582H53.7348V16.1035C53.7348 14.9837 53.4809 14.4238 52.9731 14.4238C52.6736 14.4238 52.4685 14.5964 52.3579 14.9414C52.2472 15.2799 52.1918 15.8268 52.1918 16.582ZM63.0122 18.623L65.268 19.4629C64.8969 21.6764 63.7185 22.7832 61.7329 22.7832C60.5349 22.7832 59.5909 22.3145 58.9008 21.377C58.2172 20.4395 57.8754 19.1471 57.8754 17.5C57.8754 16.0156 58.1717 14.8177 58.7641 13.9062C59.3631 12.9948 60.1443 12.5391 61.1079 12.5391C62.0323 12.5391 62.6541 12.946 62.9731 13.7598H63.0122V12.6953H65.1118V16.6602H63.0122C62.9666 15.9505 62.8527 15.4264 62.6704 15.0879C62.4946 14.7493 62.2277 14.5801 61.8696 14.5801C61.492 14.5801 61.2381 14.8047 61.1079 15.2539C60.9777 15.6966 60.9126 16.4453 60.9126 17.5C60.9126 18.6523 60.9744 19.4727 61.0981 19.9609C61.2283 20.4427 61.5278 20.6836 61.9965 20.6836C62.3221 20.6836 62.5597 20.5176 62.7094 20.1855C62.8592 19.8535 62.9601 19.3327 63.0122 18.623ZM70.8247 9.94141C70.8247 10.4102 70.6586 10.8105 70.3266 11.1426C69.9946 11.4746 69.5942 11.6406 69.1254 11.6406C68.6567 11.6406 68.2563 11.4746 67.9243 11.1426C67.5922 10.8105 67.4262 10.4102 67.4262 9.94141C67.4262 9.47266 67.5922 9.07227 67.9243 8.74023C68.2563 8.4082 68.6567 8.24219 69.1254 8.24219C69.5877 8.24219 69.9848 8.4082 70.3168 8.74023C70.6554 9.07227 70.8247 9.47266 70.8247 9.94141ZM66.5766 22.5V20.4004H67.6411V14.8047H66.5766V12.6953H70.561V20.4004H71.4985V22.5H66.5766ZM72.3579 26.9824V24.8828H73.3149V14.8047H72.3579V12.6953H76.2348V13.8184H76.2739C76.5734 12.9655 77.1691 12.5391 78.061 12.5391C78.9724 12.5391 79.6723 12.9688 80.1606 13.8281C80.6489 14.6875 80.893 15.931 80.893 17.5586C80.893 19.2057 80.6489 20.4688 80.1606 21.3477C79.6723 22.2201 78.979 22.6562 78.0805 22.6562C77.3969 22.6562 76.7817 22.3503 76.2348 21.7383V24.8828H77.5727V26.9824H72.3579ZM76.2348 18.7402C76.2348 19.3913 76.2967 19.8568 76.4204 20.1367C76.5441 20.4167 76.7557 20.5566 77.0551 20.5566C77.4262 20.5566 77.6508 20.3353 77.729 19.8926C77.8136 19.4434 77.8559 18.6589 77.8559 17.5391C77.8559 16.543 77.7973 15.8529 77.6801 15.4688C77.5629 15.0781 77.3481 14.8828 77.0356 14.8828C76.5017 14.8828 76.2348 15.4622 76.2348 16.6211V18.7402ZM87.0258 19.4434L89.4477 20.3418C89.1482 21.123 88.6892 21.7253 88.0708 22.1484C87.4523 22.5716 86.7361 22.7832 85.9223 22.7832C83.4614 22.7832 82.2309 21.0156 82.2309 17.4805C82.2309 15.8138 82.5597 14.554 83.2172 13.7012C83.8813 12.8483 84.8123 12.4219 86.0102 12.4219C87.0519 12.4219 87.908 12.8223 88.5786 13.623C89.2491 14.4238 89.5844 15.5892 89.5844 17.1191V18.0371H85.1215C85.1215 19.1243 85.1834 19.8372 85.3071 20.1758C85.4373 20.5143 85.6782 20.6836 86.0297 20.6836C86.3292 20.6836 86.5538 20.5827 86.7036 20.3809C86.8533 20.1725 86.9607 19.86 87.0258 19.4434ZM85.1215 16.582H86.6645V16.1035C86.6645 14.9837 86.4106 14.4238 85.9028 14.4238C85.6033 14.4238 85.3982 14.5964 85.2876 14.9414C85.1769 15.2799 85.1215 15.8268 85.1215 16.582ZM97.2407 22.5V20.4004H98.3051V10.5566H97.2407V8.45703H102.202V10.5566H101.645V14.082H103.764V10.5566H103.198V8.45703H108.178V10.5566H107.104V20.4004H108.178V22.5H103.198V20.4004H103.764V16.1816H101.645V20.4004H102.202V22.5H97.2407ZM117.661 12.6953V20.4004H118.735V22.5H114.741V21.7188C113.992 22.3438 113.256 22.6562 112.534 22.6562C111.778 22.6562 111.17 22.3763 110.707 21.8164C110.245 21.2565 110.014 20.485 110.014 19.502V14.8047H109.038V12.6953H112.934V19.0234C112.934 19.5443 112.993 19.9089 113.11 20.1172C113.234 20.319 113.448 20.4199 113.754 20.4199C113.924 20.4199 114.064 20.3939 114.174 20.3418C114.291 20.2832 114.48 20.1562 114.741 19.9609V14.8047H113.901V12.6953H117.661ZM119.467 22.5V20.4004H120.424V10.5566H119.467V8.45703H123.344V13.584H123.383C123.813 12.8874 124.428 12.5391 125.229 12.5391C126.082 12.5391 126.762 12.9492 127.27 13.7695C127.784 14.5898 128.041 15.7812 128.041 17.3438C128.041 19.0495 127.794 20.3581 127.299 21.2695C126.811 22.181 126.114 22.6367 125.209 22.6367C124.493 22.6367 123.872 22.3307 123.344 21.7188V22.5H119.467ZM123.344 16.9043V18.8965C123.344 19.4499 123.403 19.8633 123.52 20.1367C123.644 20.4036 123.859 20.5371 124.165 20.5371C124.523 20.5371 124.75 20.332 124.848 19.9219C124.952 19.5052 125.004 18.7305 125.004 17.5977C125.004 16.5755 124.946 15.8691 124.829 15.4785C124.718 15.0814 124.49 14.8828 124.145 14.8828C123.839 14.8828 123.627 15.0358 123.51 15.3418C123.4 15.6478 123.344 16.1686 123.344 16.9043Z" fill="white"/>
</svg>
